<?xml version="1.0" standalone="no"?>
<svg style="background: none" xmlns="http://www.w3.org/2000/svg" xmlns:xlink="http://www.w3.org/1999/xlink" version="1.1" width="847px" height="400px" viewBox="-0.5 -0.5 847 400"><defs><style>* {margin: 0px; padding: 0px;}</style><clipPath id="mx-clip-6-33-136-24-0"><rect x="6" y="33" width="136" height="24"/></clipPath><clipPath id="mx-clip-6-59-136-24-0"><rect x="6" y="59" width="136" height="24"/></clipPath><clipPath id="mx-clip-6-85-136-24-0"><rect x="6" y="85" width="136" height="24"/></clipPath><clipPath id="mx-clip-6-111-136-24-0"><rect x="6" y="111" width="136" height="24"/></clipPath><clipPath id="mx-clip-6-137-136-24-0"><rect x="6" y="137" width="136" height="24"/></clipPath><clipPath id="mx-clip-6-163-136-24-0"><rect x="6" y="163" width="136" height="24"/></clipPath><clipPath id="mx-clip-6-189-136-24-0"><rect x="6" y="189" width="136" height="24"/></clipPath><clipPath id="mx-clip-6-215-136-24-0"><rect x="6" y="215" width="136" height="24"/></clipPath><clipPath id="mx-clip-6-241-136-24-0"><rect x="6" y="241" width="136" height="24"/></clipPath><clipPath id="mx-clip-6-267-136-24-0"><rect x="6" y="267" width="136" height="24"/></clipPath><clipPath id="mx-clip-6-293-136-24-0"><rect x="6" y="293" width="136" height="24"/></clipPath><clipPath id="mx-clip-6-319-136-24-0"><rect x="6" y="319" width="136" height="24"/></clipPath><clipPath id="mx-clip-6-345-136-24-0"><rect x="6" y="345" width="136" height="24"/></clipPath><clipPath id="mx-clip-5-370-138-26-0"><rect x="5" y="370" width="138" height="26"/></clipPath><clipPath id="mx-clip-314-33-150-24-0"><rect x="314" y="33" width="150" height="24"/></clipPath><clipPath id="mx-clip-314-59-150-24-0"><rect x="314" y="59" width="150" height="24"/></clipPath><clipPath id="mx-clip-314-85-150-24-0"><rect x="314" y="85" width="150" height="24"/></clipPath><clipPath id="mx-clip-314-111-150-24-0"><rect x="314" y="111" width="150" height="24"/></clipPath><clipPath id="mx-clip-314-137-150-24-0"><rect x="314" y="137" width="150" height="24"/></clipPath><clipPath id="mx-clip-314-163-150-24-0"><rect x="314" y="163" width="150" height="24"/></clipPath><clipPath id="mx-clip-314-189-150-24-0"><rect x="314" y="189" width="150" height="24"/></clipPath><clipPath id="mx-clip-314-215-150-24-0"><rect x="314" y="215" width="150" height="24"/></clipPath><clipPath id="mx-clip-314-241-150-24-0"><rect x="314" y="241" width="150" height="24"/></clipPath><clipPath id="mx-clip-313-266-152-26-0"><rect x="313" y="266" width="152" height="26"/></clipPath><clipPath id="mx-clip-646-33-150-24-0"><rect x="646" y="33" width="150" height="24"/></clipPath><clipPath id="mx-clip-646-59-150-24-0"><rect x="646" y="59" width="150" height="24"/></clipPath><clipPath id="mx-clip-646-85-150-24-0"><rect x="646" y="85" width="150" height="24"/></clipPath><clipPath id="mx-clip-646-111-150-24-0"><rect x="646" y="111" width="150" height="24"/></clipPath><clipPath id="mx-clip-646-137-150-24-0"><rect x="646" y="137" width="150" height="24"/></clipPath><clipPath id="mx-clip-645-162-152-26-0"><rect x="645" y="162" width="152" height="26"/></clipPath></defs><g><path d="M 1 26.5 L 1 0.5 L 147 0.5 L 147 26.5" fill="#198754" stroke="#198754" stroke-width="2" stroke-miterlimit="10" pointer-events="none"/><path d="M 1 26.5 L 1 398.5 L 147 398.5 L 147 26.5" fill="#ffffff" stroke="#198754" stroke-width="2" stroke-miterlimit="10" pointer-events="none"/><path d="M 1 26.5 L 147 26.5" fill="none" stroke="#198754" stroke-width="2" stroke-miterlimit="10" pointer-events="none"/><g fill="#FFFFFF" font-family="Helvetica" font-weight="bold" text-anchor="middle" font-size="12px"><text x="73" y="19">User</text></g><rect x="1" y="26.5" width="146" height="26" fill="none" stroke="#198754" pointer-events="none"/><g fill="#000000" font-family="Helvetica" clip-path="url(#mx-clip-6-33-136-24-0)" font-size="12px"><text x="7.5" y="45">_id (mongodb objectID)</text></g><rect x="1" y="52.5" width="146" height="26" fill="none" stroke="#198754" pointer-events="none"/><g fill="#000000" font-family="Helvetica" clip-path="url(#mx-clip-6-59-136-24-0)" font-size="12px"><text x="7.5" y="71">name</text></g><rect x="1" y="78.5" width="146" height="26" fill="none" stroke="#198754" pointer-events="none"/><g fill="#000000" font-family="Helvetica" clip-path="url(#mx-clip-6-85-136-24-0)" font-size="12px"><text x="7.5" y="97">email</text></g><rect x="1" y="104.5" width="146" height="26" fill="none" stroke="#198754" pointer-events="none"/><g fill="#000000" font-family="Helvetica" clip-path="url(#mx-clip-6-111-136-24-0)" font-size="12px"><text x="7.5" y="123">role : [user, admin]</text></g><rect x="1" y="130.5" width="146" height="26" fill="none" stroke="#198754" pointer-events="none"/><g fill="#000000" font-family="Helvetica" clip-path="url(#mx-clip-6-137-136-24-0)" font-size="12px"><text x="7.5" y="149">password</text></g><rect x="1" y="156.5" width="146" height="26" fill="none" stroke="#198754" pointer-events="none"/><g fill="#000000" font-family="Helvetica" clip-path="url(#mx-clip-6-163-136-24-0)" font-size="12px"><text x="7.5" y="175">createdAt : date</text></g><rect x="1" y="182.5" width="146" height="26" fill="none" stroke="#198754" pointer-events="none"/><g fill="#000000" font-family="Helvetica" clip-path="url(#mx-clip-6-189-136-24-0)" font-size="12px"><text x="7.5" y="201">title</text></g><rect x="1" y="208.5" width="146" height="26" fill="none" stroke="#198754" pointer-events="none"/><g fill="#000000" font-family="Helvetica" clip-path="url(#mx-clip-6-215-136-24-0)" font-size="12px"><text x="7.5" y="227">about</text></g><rect x="1" y="234.5" width="146" height="26" fill="none" stroke="#198754" pointer-events="none"/><g fill="#000000" font-family="Helvetica" clip-path="url(#mx-clip-6-241-136-24-0)" font-size="12px"><text x="7.5" y="253">place</text></g><rect x="1" y="260.5" width="146" height="26" fill="none" stroke="#198754" pointer-events="none"/><g fill="#000000" font-family="Helvetica" clip-path="url(#mx-clip-6-267-136-24-0)" font-size="12px"><text x="7.5" y="279">website</text></g><rect x="1" y="286.5" width="146" height="26" fill="none" stroke="#198754" pointer-events="none"/><g fill="#000000" font-family="Helvetica" clip-path="url(#mx-clip-6-293-136-24-0)" font-size="12px"><text x="7.5" y="305">profileImage</text></g><rect x="1" y="312.5" width="146" height="26" fill="none" stroke="#198754" pointer-events="none"/><g fill="#000000" font-family="Helvetica" clip-path="url(#mx-clip-6-319-136-24-0)" font-size="12px"><text x="7.5" y="331">blocked : boolean</text></g><rect x="1" y="338.5" width="146" height="26" fill="none" stroke="#198754" pointer-events="none"/><g fill="#000000" font-family="Helvetica" clip-path="url(#mx-clip-6-345-136-24-0)" font-size="12px"><text x="7.5" y="357">resetPasswordToken</text></g><g fill="#000000" font-family="Helvetica" clip-path="url(#mx-clip-5-370-138-26-0)" font-size="12px"><text x="6.5" y="382">resetPasswordExpire</text></g><path d="M 1 394.5 L 147 394.5" fill="none" stroke="#198754" stroke-miterlimit="10" pointer-events="none"/><path d="M 308.5 26.5 L 308.5 0.5 L 468.5 0.5 L 468.5 26.5" fill="#198754" stroke="#198754" stroke-width="2" stroke-miterlimit="10" pointer-events="none"/><path d="M 308.5 26.5 L 308.5 294.5 L 468.5 294.5 L 468.5 26.5" fill="#ffffff" stroke="#198754" stroke-width="2" stroke-miterlimit="10" pointer-events="none"/><path d="M 308.5 26.5 L 468.5 26.5" fill="none" stroke="#198754" stroke-width="2" stroke-miterlimit="10" pointer-events="none"/><g fill="#FFFFFF" font-family="Helvetica" font-weight="bold" text-anchor="middle" font-size="12px"><text x="387.5" y="19">Question</text></g><rect x="308.5" y="26.5" width="160" height="26" fill="none" stroke="#198754" pointer-events="none"/><g fill="#000000" font-family="Helvetica" clip-path="url(#mx-clip-314-33-150-24-0)" font-size="12px"><text x="315" y="45">_id (mongodb objectID)</text></g><rect x="308.5" y="52.5" width="160" height="26" fill="none" stroke="#198754" pointer-events="none"/><g fill="#000000" font-family="Helvetica" clip-path="url(#mx-clip-314-59-150-24-0)" font-size="12px"><text x="315" y="71">title</text></g><rect x="308.5" y="78.5" width="160" height="26" fill="none" stroke="#198754" pointer-events="none"/><g fill="#000000" font-family="Helvetica" clip-path="url(#mx-clip-314-85-150-24-0)" font-size="12px"><text x="315" y="97">content</text></g><rect x="308.5" y="104.5" width="160" height="26" fill="none" stroke="#198754" pointer-events="none"/><g fill="#000000" font-family="Helvetica" clip-path="url(#mx-clip-314-111-150-24-0)" font-size="12px"><text x="315" y="123">slug</text></g><rect x="308.5" y="130.5" width="160" height="26" fill="none" stroke="#198754" pointer-events="none"/><g fill="#000000" font-family="Helvetica" clip-path="url(#mx-clip-314-137-150-24-0)" font-size="12px"><text x="315" y="149">user : user_id</text></g><rect x="308.5" y="156.5" width="160" height="26" fill="none" stroke="#198754" pointer-events="none"/><g fill="#000000" font-family="Helvetica" clip-path="url(#mx-clip-314-163-150-24-0)" font-size="12px"><text x="315" y="175">likes : [ user_id ]</text></g><rect x="308.5" y="182.5" width="160" height="26" fill="none" stroke="#198754" pointer-events="none"/><g fill="#000000" font-family="Helvetica" clip-path="url(#mx-clip-314-189-150-24-0)" font-size="12px"><text x="315" y="201">likeCount : Number</text></g><rect x="308.5" y="208.5" width="160" height="26" fill="none" stroke="#198754" pointer-events="none"/><g fill="#000000" font-family="Helvetica" clip-path="url(#mx-clip-314-215-150-24-0)" font-size="12px"><text x="315" y="227">createdAt : date</text></g><rect x="308.5" y="234.5" width="160" height="26" fill="none" stroke="#198754" pointer-events="none"/><g fill="#000000" font-family="Helvetica" clip-path="url(#mx-clip-314-241-150-24-0)" font-size="12px"><text x="315" y="253">answers : [ answer_id ]</text></g><g fill="#000000" font-family="Helvetica" clip-path="url(#mx-clip-313-266-152-26-0)" font-size="12px"><text x="314" y="278">answerCount : Number</text></g><path d="M 308.5 290.5 L 468.5 290.5" fill="none" stroke="#198754" stroke-miterlimit="10" pointer-events="none"/><path d="M 640.5 26.5 L 640.5 0.5 L 800.5 0.5 L 800.5 26.5" fill="#198754" stroke="#198754" stroke-width="2" stroke-miterlimit="10" pointer-events="none"/><path d="M 640.5 26.5 L 640.5 190.5 L 800.5 190.5 L 800.5 26.5" fill="#ffffff" stroke="#198754" stroke-width="2" stroke-miterlimit="10" pointer-events="none"/><path d="M 640.5 26.5 L 800.5 26.5" fill="none" stroke="#198754" stroke-width="2" stroke-miterlimit="10" pointer-events="none"/><g fill="#FFFFFF" font-family="Helvetica" font-weight="bold" text-anchor="middle" font-size="12px"><text x="719.5" y="19">Answer</text></g><rect x="640.5" y="26.5" width="160" height="26" fill="none" stroke="#198754" pointer-events="none"/><g fill="#000000" font-family="Helvetica" clip-path="url(#mx-clip-646-33-150-24-0)" font-size="12px"><text x="647" y="45">_id (mongodb objectID)</text></g><rect x="640.5" y="52.5" width="160" height="26" fill="none" stroke="#198754" pointer-events="none"/><g fill="#000000" font-family="Helvetica" clip-path="url(#mx-clip-646-59-150-24-0)" font-size="12px"><text x="647" y="71">content</text></g><rect x="640.5" y="78.5" width="160" height="26" fill="none" stroke="#198754" pointer-events="none"/><g fill="#000000" font-family="Helvetica" clip-path="url(#mx-clip-646-85-150-24-0)" font-size="12px"><text x="647" y="97">createdAt : date</text></g><rect x="640.5" y="104.5" width="160" height="26" fill="none" stroke="#198754" pointer-events="none"/><g fill="#000000" font-family="Helvetica" clip-path="url(#mx-clip-646-111-150-24-0)" font-size="12px"><text x="647" y="123">likes : [ user_id ]</text></g><rect x="640.5" y="130.5" width="160" height="26" fill="none" stroke="#198754" pointer-events="none"/><g fill="#000000" font-family="Helvetica" clip-path="url(#mx-clip-646-137-150-24-0)" font-size="12px"><text x="647" y="149">user : user_id</text></g><g fill="#000000" font-family="Helvetica" clip-path="url(#mx-clip-645-162-152-26-0)" font-size="12px"><text x="646" y="174">question : question_id</text></g><path d="M 640.5 186.5 L 800.5 186.5" fill="none" stroke="#198754" stroke-miterlimit="10" pointer-events="none"/><path d="M 147 33 L 228 33 L 228 153 L 300.26 153" fill="none" stroke="#198754" stroke-width="2" stroke-miterlimit="10" pointer-events="none"/><path d="M 306.26 153 L 298.26 157 L 300.26 153 L 298.26 149 Z" fill="#198754" stroke="#198754" stroke-width="2" stroke-miterlimit="10" pointer-events="none"/><path d="M 468.5 40 L 555 40 L 555 170 L 632.26 170" fill="none" stroke="#198754" stroke-width="2" stroke-miterlimit="10" pointer-events="none"/><path d="M 638.26 170 L 630.26 174 L 632.26 170 L 630.26 166 Z" fill="#198754" stroke="#198754" stroke-width="2" stroke-miterlimit="10" pointer-events="none"/><path d="M 147 40 L 198 40 L 198 364 L 838 364 L 838 135 L 808.74 135" fill="none" stroke="#198754" stroke-width="2" stroke-miterlimit="10" pointer-events="none"/><path d="M 802.74 135 L 810.74 131 L 808.74 135 L 810.74 139 Z" fill="#198754" stroke="#198754" stroke-width="2" stroke-miterlimit="10" pointer-events="none"/></g></svg>